<?xml version="1.0" encoding="UTF-8"?>
<svg version="1.1" xmlns="http://www.w3.org/2000/svg" width="64" height="64">
<path d="M0 0 C2.31 0 4.62 0 7 0 C7 1.98 7 3.96 7 6 C17.23 6 27.46 6 38 6 C38 14.58 38 23.16 38 32 C27.77 32 17.54 32 7 32 C7 38.27 7 44.54 7 51 C17.23 51 27.46 51 38 51 C38 53.31 38 55.62 38 58 C24.14 58 10.28 58 -4 58 C-4 55.69 -4 53.38 -4 51 C-2.68 51 -1.36 51 0 51 C0 34.17 0 17.34 0 0 Z " fill="#45B4F3" transform="translate(15,3)"/>
<path d="M0 0 C2.31 0 4.62 0 7 0 C7 16.83 7 33.66 7 51 C17.23 51 27.46 51 38 51 C38 53.31 38 55.62 38 58 C24.14 58 10.28 58 -4 58 C-4 55.69 -4 53.38 -4 51 C-2.68 51 -1.36 51 0 51 C0 34.17 0 17.34 0 0 Z " fill="#1182B8" transform="translate(15,3)"/>
<path d="M0 0 C13.86 0 27.72 0 42 0 C42 2.31 42 4.62 42 7 C28.14 7 14.28 7 0 7 C0 4.69 0 2.38 0 0 Z " fill="#002A44" transform="translate(11,54)"/>
<path d="M0 0 C3.53571429 0.53571429 3.53571429 0.53571429 5 2 C5.27314815 7.73611111 5.27314815 7.73611111 5 10 C4.34 10.66 3.68 11.32 3 12 C-0.53571429 11.46428571 -0.53571429 11.46428571 -2 10 C-2.27314815 4.26388889 -2.27314815 4.26388889 -2 2 C-1.34 1.34 -0.68 0.68 0 0 Z " fill="#02304B" transform="translate(41,16)"/>
<path d="M0 0 C1.65 0 3.3 0 5 0 C5 0.66 5 1.32 5 2 C4.01 2 3.02 2 2 2 C2 2.99 2 3.98 2 5 C2.66 5 3.32 5 4 5 C4 5.66 4 6.32 4 7 C3.34 7 2.68 7 2 7 C2 8.65 2 10.3 2 12 C1.34 12 0.68 12 0 12 C0 8.04 0 4.08 0 0 Z " fill="#00273F" transform="translate(30,16)"/>
<path d="M0 0 C0.99 0 1.98 0 3 0 C3 2.64 3 5.28 3 8 C2.01 8 1.02 8 0 8 C0 5.36 0 2.72 0 0 Z " fill="#42ADEA" transform="translate(41,18)"/>
<path d="M0 0 C0.66 0.33 1.32 0.66 2 1 C2 2.65 2 4.3 2 6 C1.01 6.33 0.02 6.66 -1 7 C-1 6.34 -1 5.68 -1 5 C-1.66 5 -2.32 5 -3 5 C-3 4.01 -3 3.02 -3 2 C-2.01 2 -1.02 2 0 2 C0 1.34 0 0.68 0 0 Z " fill="#24729D" transform="translate(35,16)"/>
</svg>
